<svg id="Capa_1" enable-background="new 0 0 512.001 512.001" height="512" viewBox="0 0 512.001 512.001" width="512" xmlns="http://www.w3.org/2000/svg"><g><path d="m74.089 248.499c-4.142 0-7.5 3.357-7.5 7.5s3.358 7.5 7.5 7.5h12.413c4.142 0 7.5-3.357 7.5-7.5s-3.358-7.5-7.5-7.5z"/><path d="m445.412 255.999c0-4.143-3.357-7.5-7.5-7.5h-12.413c-4.143 0-7.5 3.357-7.5 7.5s3.357 7.5 7.5 7.5h12.413c4.143 0 7.5-3.357 7.5-7.5z"/><path d="m292.867 58.696c4.143 0 7.5-3.357 7.5-7.5s-3.357-7.5-7.5-7.5h-73.733c-4.142 0-7.5 3.357-7.5 7.5s3.358 7.5 7.5 7.5z"/><path d="m489.719 136.853c-37.42-83.135-120.507-136.853-211.675-136.853h-44.087c-41.786 0-82.849 11.299-118.75 32.676-3.559 2.119-4.727 6.723-2.607 10.281 2.12 3.56 6.723 4.726 10.281 2.607 33.582-19.995 71.991-30.564 111.076-30.564h44.087c84.746 0 162.025 49.618 197.336 126.556v119.897c0 3.844-1.641 7.521-4.5 10.087l-37.004 33.205c-3.083 2.767-3.34 7.508-.573 10.591 1.481 1.651 3.528 2.491 5.585 2.491 1.783 0 3.574-.633 5.006-1.918l37.005-33.205c6.025-5.408 9.481-13.154 9.481-21.251v-121.522c0-1.062-.226-2.111-.661-3.078z"/><path d="m411.526 324.803-26.19 23.502c-1.589 1.426-3.639 2.211-5.773 2.211h-48.213c6.867-12.499 15.386-23.719 25.615-33.819h12.611c13.794 0 25.017-11.223 25.017-25.017 0-13.795-11.223-25.018-25.017-25.018h-29.878v-31.535c0-4.143-3.357-7.5-7.5-7.5s-7.5 3.357-7.5 7.5v31.535h-137.394v-88.698c0-2.403 1.955-4.358 4.358-4.358h128.675c2.403 0 4.358 1.955 4.358 4.358v27.177c0 4.143 3.357 7.5 7.5 7.5s7.5-3.357 7.5-7.5v-27.177c0-10.674-8.685-19.358-19.358-19.358h-128.674c-10.674 0-19.358 8.685-19.358 19.358v88.698h-29.877c-13.794 0-25.017 11.223-25.017 25.018 0 13.794 11.223 25.017 25.017 25.017h12.61c10.229 10.1 18.748 21.32 25.615 33.819h-48.213c-2.135 0-4.185-.785-5.773-2.21l-85.545-76.766c-2.86-2.566-4.501-6.243-4.501-10.087v-119.897c14.126-30.767 35.547-58.138 62.026-79.231 3.24-2.581 3.774-7.3 1.193-10.539-2.581-3.241-7.3-3.774-10.54-1.193-28.754 22.906-51.93 52.735-67.02 86.261-.436.968-.661 2.017-.661 3.078v121.522c0 8.098 3.456 15.843 9.482 21.251l85.545 76.766c4.345 3.898 9.953 6.046 15.791 6.046h55.404c4.994 12.003 8.458 24.311 10.823 36.993h-6.181c-4.142 0-7.5 3.357-7.5 7.5s3.358 7.5 7.5 7.5h8.444c1.616 13.584 2.215 28.231 1.797 44.092h-6.8c-4.142 0-7.5 3.357-7.5 7.5s3.358 7.5 7.5 7.5h6.124c-.544 8.666-1.348 17.654-2.443 27.028-.481 4.114 2.465 7.839 6.579 8.319 4.084.485 7.837-2.444 8.32-6.579 1.165-9.973 2.012-19.542 2.572-28.769h31.422v27.898c0 4.143 3.358 7.5 7.5 7.5s7.5-3.357 7.5-7.5v-27.898h31.421c.56 9.227 1.407 18.795 2.572 28.769.477 4.081 4.166 7.06 8.319 6.579 4.114-.48 7.06-4.205 6.579-8.319-1.095-9.374-1.899-18.363-2.443-27.028h6.124c4.143 0 7.5-3.357 7.5-7.5s-3.357-7.5-7.5-7.5h-6.801c-.418-15.861.181-30.507 1.798-44.092h8.444c4.143 0 7.5-3.357 7.5-7.5s-3.357-7.5-7.5-7.5h-6.18c2.365-12.678 5.828-24.986 10.823-36.993h55.404c5.838 0 11.445-2.146 15.791-6.046l26.19-23.503c3.083-2.767 3.34-7.509.573-10.591-2.761-3.085-7.504-3.343-10.586-.574zm-97.088 25.713h-50.937v-33.819h73.003c-8.743 10.292-16.084 21.528-22.066 33.819zm-182.028-58.836c0-5.523 4.494-10.018 10.017-10.018h227.147c5.523 0 10.017 4.494 10.017 10.018s-4.493 10.017-10.017 10.017h-227.147c-5.524-.001-10.017-4.494-10.017-10.017zm43.087 25.016h73.003v33.819h-50.937c-5.981-12.29-13.323-23.526-22.066-33.819zm28.486 48.82h44.518v36.993h-34.606c-2.168-12.449-5.241-24.542-9.912-36.993zm13.747 96.085c.399-15.753-.16-30.41-1.693-44.092h32.464v44.092zm76.542 0h-30.77v-44.092h32.463c-1.533 13.682-2.093 28.338-1.693 44.092zm3.835-59.092h-34.606v-36.993h44.518c-4.645 12.382-7.73 24.462-9.912 36.993z"/></g></svg>